<?xml version="1.0" encoding="utf-8"?>
<!-- Generator: Adobe Illustrator 20.1.0, SVG Export Plug-In . SVG Version: 6.00 Build 0)  -->
<svg version="1.1" id="Layer_1" xmlns="http://www.w3.org/2000/svg" xmlns:xlink="http://www.w3.org/1999/xlink" x="0px" y="0px"
	 viewBox="0 0 16 16" style="enable-background:new 0 0 16 16;" xml:space="preserve">
<style type="text/css">
	.st0{fill:#FFFFFF;}
</style>
<path d="M16.5,8.2L16.5,8.2L16.5,8.2L16.5,8.2z"/>
<path d="M16.5,8.2L16.5,8.2L16.5,8.2L16.5,8.2z"/>
<g>
	<path d="M16.5,8.2"/>
	<path d="M16.5,8.2"/>
</g>
<path class="st0" d="M8.6,8c0.2-0.2,2.8-2.8,3.8-4.1c1.3-1.8-1.3-4.5-3.2-3.2c-0.9,0.6-6.6,7-6.6,7S2.5,7.8,2.5,8l0,0l0,0
	c0,0.2,5.9,6.7,6.8,7.3c1.9,1.3,4.5-1.4,3.2-3.2C11.5,10.8,8.8,8.1,8.6,8z"/>
</svg>
