<?xml version="1.0" encoding="utf-8"?>
<!-- Generator: Adobe Illustrator 20.1.0, SVG Export Plug-In . SVG Version: 6.00 Build 0)  -->
<svg version="1.1" id="Layer_1" xmlns="http://www.w3.org/2000/svg" xmlns:xlink="http://www.w3.org/1999/xlink" x="0px" y="0px"
	 viewBox="0 0 16 16" style="enable-background:new 0 0 16 16;" xml:space="preserve">
<style type="text/css">
	.st0{fill:#FFFFFF;}
</style>
<path d="M16.5,8.2L16.5,8.2L16.5,8.2L16.5,8.2z"/>
<path d="M16.5,8.2L16.5,8.2L16.5,8.2L16.5,8.2z"/>
<g>
	<path d="M16.5,8.2"/>
	<path d="M16.5,8.2"/>
</g>
<path class="st0" d="M6.7,8c-0.2,0.2-2.8,2.8-3.8,4.1c-1.3,1.8,1.3,4.5,3.2,3.2c0.9-0.6,4.2-4.4,4.2-4.4s2.6-2.7,2.6-2.9l0,0l0,0
	c0-0.2-3.5-3.9-3.5-3.9S6.9,1.3,6,0.7C4.1-0.7,1.5,2,2.9,3.9C3.8,5.2,6.5,7.8,6.7,8z"/>
</svg>
